<svg width="52" height="52" viewBox="0 0 52 52" fill="none" xmlns="http://www.w3.org/2000/svg">
<path d="M17.035 27.7651C15.1917 27.7651 13.6867 27.1584 12.52 25.9451C11.3533 24.7318 10.77 23.0751 10.77 20.9751C10.77 19.5984 11.0383 18.3968 11.575 17.3701C12.1117 16.3434 12.8467 15.5618 13.78 15.0251C14.7367 14.4651 15.8217 14.1851 17.035 14.1851C18.9017 14.1851 20.4183 14.8034 21.585 16.0401C22.7517 17.2534 23.335 18.8984 23.335 20.9751C23.335 23.0751 22.7517 24.7318 21.585 25.9451C20.4183 27.1584 18.9017 27.7651 17.035 27.7651ZM31.525 14.5001H36.565L19.835 39.0001H14.795L31.525 14.5001ZM17.035 24.4401C17.665 24.4401 18.1667 24.1601 18.54 23.6001C18.9133 23.0401 19.1 22.1651 19.1 20.9751C19.1 19.7851 18.9133 18.9101 18.54 18.3501C18.1667 17.7901 17.665 17.5101 17.035 17.5101C16.4283 17.5101 15.9267 17.8018 15.53 18.3851C15.1567 18.9451 14.97 19.8084 14.97 20.9751C14.97 22.1418 15.1567 23.0168 15.53 23.6001C15.9267 24.1601 16.4283 24.4401 17.035 24.4401ZM34.325 39.3151C32.4583 39.3151 30.9417 38.7084 29.775 37.4951C28.6317 36.2818 28.06 34.6251 28.06 32.5251C28.06 30.4484 28.6433 28.8034 29.81 27.5901C30.9767 26.3534 32.4817 25.7351 34.325 25.7351C36.1917 25.7351 37.7083 26.3534 38.875 27.5901C40.0417 28.8034 40.625 30.4484 40.625 32.5251C40.625 34.6251 40.0417 36.2818 38.875 37.4951C37.7083 38.7084 36.1917 39.3151 34.325 39.3151ZM34.325 35.9901C34.955 35.9901 35.4567 35.7101 35.83 35.1501C36.2033 34.5901 36.39 33.7151 36.39 32.5251C36.39 31.3351 36.2033 30.4601 35.83 29.9001C35.4567 29.3401 34.955 29.0601 34.325 29.0601C33.695 29.0601 33.1933 29.3401 32.82 29.9001C32.4467 30.4601 32.26 31.3351 32.26 32.5251C32.26 33.7151 32.4467 34.5901 32.82 35.1501C33.1933 35.7101 33.695 35.9901 34.325 35.9901Z" fill="white"/>
<path d="M26 51.5C40.0833 51.5 51.5 40.0833 51.5 26C51.5 11.9167 40.0833 0.5 26 0.5C11.9167 0.5 0.5 11.9167 0.5 26C0.5 40.0833 11.9167 51.5 26 51.5Z" stroke="white"/>
</svg>
