<svg width="129" height="23" viewBox="0 0 129 23" fill="none" xmlns="http://www.w3.org/2000/svg">
<g clip-path="url(#clip0)">
<path d="M0.496094 0.151855V22.9999H3.53609V12.5359H15.5681V22.9999H18.6081V0.151855H15.5681V9.97586H3.53609V0.151855H0.496094ZM23.5899 0.151855V22.9999H39.4619V20.4399H26.6299V12.5359H38.5019V9.97586H26.6299V2.71186H39.3659V0.151855H23.5899ZM43.1524 0.151855V22.9999H58.2883V20.4399H46.1924V0.151855H43.1524ZM66.8111 13.6559L75.5471 0.151855H72.0911L65.4031 11.0319L58.5551 0.151855H54.9391L63.7711 13.6559V22.9999H66.8111V13.6559ZM78.1211 0.151855V22.9999H81.1611V12.5359H91.6571V9.97586H81.1611V2.71186H93.1291V0.151855H78.1211ZM96.4961 0.151855V22.9999H111.632V20.4399H99.5361V0.151855H96.4961ZM120.155 13.6559L128.891 0.151855H125.435L118.747 11.0319L111.899 0.151855H108.283L117.115 13.6559V22.9999H120.155V13.6559Z" fill="black"/>
</g>
<defs>
<clipPath id="clip0">
<rect width="129" height="23" fill="white"/>
</clipPath>
</defs>
</svg>
